<svg xmlns="http://www.w3.org/2000/svg" viewBox="0 0 64 64" fill="none" aria-hidden="true">
  <rect width="64" height="64" rx="14" fill="#231F20"/>
  <path fill="#fff" d="M32 8c4.2 0 7.8 3.2 9.4 7.6l5.2 14.6c2 5.7.3 12-4.1 15.6-2.6 2-5.8 3-9.5 3s-6.9-1-9.5-3c-4.4-3.6-6.1-9.9-4.1-15.6l5.2-14.6C24.2 11.2 27.8 8 32 8Z"/>
  <circle cx="32" cy="30" r="7.5" stroke="#231F20" stroke-width="2.8" fill="none"/>
  <circle cx="32" cy="30" r="2.8" fill="#231F20"/>
  <circle cx="21.5" cy="45" r="2.2" fill="#fff"/>
  <circle cx="26.5" cy="48" r="2.2" fill="#fff"/>
  <circle cx="32" cy="49" r="2.2" fill="#fff"/>
  <circle cx="37.5" cy="48" r="2.2" fill="#fff"/>
  <circle cx="42.5" cy="45" r="2.2" fill="#fff"/>
</svg>
